<svg xmlns="http://www.w3.org/2000/svg" viewBox="0 0 162.84 27.74"><defs><style>.cls-1{fill:#00a794}</style></defs><title>Asset 2</title><g id="Layer_2" data-name="Layer 2"><path class="cls-1" d="M14.58 15.09a3.05 3.05 0 0 1 .47.38l.4.42A7.7 7.7 0 0 1 16.76 18a6.33 6.33 0 0 1 .47 2.42 2.37 2.37 0 0 1 0 .47A6.1 6.1 0 0 1 16 24.27a7.25 7.25 0 0 1-2.61 2.22 7.68 7.68 0 0 1-3.55.82H7.4a7.67 7.67 0 0 1-3.55-.82 7.25 7.25 0 0 1-2.61-2.22 8.32 8.32 0 0 1-.58-.93L4 20.93a3.23 3.23 0 0 0 .45 1.18 4 4 0 0 0 .85 1 3.84 3.84 0 0 0 1.16.65 4.06 4.06 0 0 0 1.41.24h1.45a4 4 0 0 0 2.58-.88 3.49 3.49 0 0 0 1.3-2.22 1.92 1.92 0 0 1 0-.27 2 2 0 0 0 0-.27 3.25 3.25 0 0 0-.25-1.36 3.62 3.62 0 0 0-.8-1.12A4.1 4.1 0 0 0 11 17.1a4.06 4.06 0 0 0-1.45-.33H7.29a7.52 7.52 0 0 1-2.52-.48 7.66 7.66 0 0 1-2.12-1.22 3.56 3.56 0 0 1-.87-.8 7.68 7.68 0 0 1-1.31-2.13A6.31 6.31 0 0 1 0 9.72v-.47a6.6 6.6 0 0 1 1.27-3.36 7.26 7.26 0 0 1 2.61-2.22 7.68 7.68 0 0 1 3.55-.82h2.36a7.79 7.79 0 0 1 3.57.82A7.23 7.23 0 0 1 16 5.89l.24.37.24.37L13.16 9a3.69 3.69 0 0 0-1.38-2 3.9 3.9 0 0 0-2.43-.8H7.91a4.22 4.22 0 0 0-1.4.23 3.81 3.81 0 0 0-1.18.65 3.86 3.86 0 0 0-.85 1A3.39 3.39 0 0 0 4 9.25a1 1 0 0 0 0 .27v.27a3.24 3.24 0 0 0 .29 1.37 3.59 3.59 0 0 0 .8 1.12 4.14 4.14 0 0 0 2.65 1.12h2.2a7.53 7.53 0 0 1 2.52.48 7.69 7.69 0 0 1 2.12 1.21zM50.55 2.78L42.32 19.3v8h-3.88v-8L30.21 2.82h4.32l5.87 13.04 5.87-13.08zm35.36.04l4.93 24.49h-4l-2.52-13.58-7.14 14-7.11-14-2.58 13.58h-4l4.98-24.49 8.7 16.85zm32.5 11.51a6.5 6.5 0 0 1 2.9 8.54 7.5 7.5 0 0 1-1.67 2.29 7.83 7.83 0 0 1-2.47 1.55 8 8 0 0 1-3 .57h-10.34V2.82H114a7.42 7.42 0 0 1 2.76.52A7.32 7.32 0 0 1 119 4.75a6.68 6.68 0 0 1 1.54 2.1 6 6 0 0 1 .56 2.57 4.94 4.94 0 0 1-.24 1.55 5.85 5.85 0 0 1-.62 1.32 7.31 7.31 0 0 1-.87 1.12 9.31 9.31 0 0 1-.96.92zm-10.7-1.4h5.62a4.07 4.07 0 0 0 1.49-.27 3.59 3.59 0 0 0 2-1.87 3.17 3.17 0 0 0 .29-1.33A3.26 3.26 0 0 0 116 7a3.82 3.82 0 0 0-2.68-1h-5.62zm5.8 11.21a4.37 4.37 0 0 0 1.7-.33 4.74 4.74 0 0 0 1.4-.88 4.11 4.11 0 0 0 .94-1.28 3.58 3.58 0 0 0 .34-1.53 3.65 3.65 0 0 0-.34-1.57 4.11 4.11 0 0 0-.94-1.28 4.5 4.5 0 0 0-1.4-.87 4.59 4.59 0 0 0-1.7-.32h-5.8v8.07zM148.1 0a15.43 15.43 0 0 1 5.76 1.07A15 15 0 0 1 158.55 4a13.68 13.68 0 0 1 3.14 4.35 12.69 12.69 0 0 1 1.15 5.35 12.48 12.48 0 0 1-1.15 5.3 13.73 13.73 0 0 1-3.14 4.33 14.93 14.93 0 0 1-4.69 2.93 15.42 15.42 0 0 1-5.76 1.07 15.26 15.26 0 0 1-5.74-1.07 15 15 0 0 1-4.67-2.93 13.7 13.7 0 0 1-3.14-4.33 12.46 12.46 0 0 1-1.15-5.3 12.67 12.67 0 0 1 1.15-5.35A13.65 13.65 0 0 1 137.69 4a15 15 0 0 1 4.67-2.93A15.26 15.26 0 0 1 148.1 0zm0 23.52a10.26 10.26 0 0 0 4-.78 10.44 10.44 0 0 0 3.26-2.1 9.88 9.88 0 0 0 2.19-3.12 9.2 9.2 0 0 0 .81-3.82 9.33 9.33 0 0 0-.81-3.84 10 10 0 0 0-2.19-3.16 10.4 10.4 0 0 0-7.23-2.9 10.12 10.12 0 0 0-3.95.78 10.34 10.34 0 0 0-3.24 2.12 10 10 0 0 0-2.19 3.16 9.32 9.32 0 0 0-.81 3.84 9.19 9.19 0 0 0 .81 3.82 9.88 9.88 0 0 0 2.19 3.12 10.5 10.5 0 0 0 3.24 2.1 10.11 10.11 0 0 0 3.92.78z" id="Layer_1-2" data-name="Layer 1"/></g></svg>